G04 #@! TF.FileFunction,Copper,L1,Top,Signal*
%FSLAX46Y46*%
G04 Gerber Fmt 4.6, Leading zero omitted, Abs format (unit mm)*
G04 Created by KiCad (PCBNEW 4.0.4-stable) date 03/21/17 18:45:28*
%MOMM*%
%LPD*%
G01*
G04 APERTURE LIST*
%ADD10C,0.100000*%
%ADD11R,2.000000X1.600000*%
%ADD12C,3.810000*%
%ADD13R,1.520000X1.520000*%
%ADD14C,1.520000*%
%ADD15C,2.999740*%
%ADD16R,1.600000X2.400000*%
%ADD17O,1.600000X2.400000*%
G04 APERTURE END LIST*
D10*
D11*
X127540000Y-97790000D03*
X131540000Y-97790000D03*
X127540000Y-97790000D03*
X131540000Y-97790000D03*
X127540000Y-97790000D03*
X131540000Y-97790000D03*
X127540000Y-97790000D03*
X131540000Y-97790000D03*
X127540000Y-85090000D03*
X131540000Y-85090000D03*
X127540000Y-85090000D03*
X131540000Y-85090000D03*
X127540000Y-85090000D03*
X131540000Y-85090000D03*
X127540000Y-85090000D03*
X131540000Y-85090000D03*
X127540000Y-97790000D03*
X131540000Y-97790000D03*
X127540000Y-90170000D03*
X131540000Y-90170000D03*
X127540000Y-90170000D03*
X131540000Y-90170000D03*
X127540000Y-97790000D03*
X131540000Y-97790000D03*
X127540000Y-97790000D03*
X131540000Y-97790000D03*
X127540000Y-90170000D03*
X131540000Y-90170000D03*
X127540000Y-90170000D03*
X131540000Y-90170000D03*
D12*
X92840000Y-106810000D03*
X92840000Y-81790000D03*
D13*
X91440000Y-88900000D03*
D14*
X91440000Y-91570000D03*
X91440000Y-94360000D03*
X91440000Y-97030000D03*
X91440000Y-99820000D03*
X94230000Y-90170000D03*
X94230000Y-92960000D03*
X94230000Y-95630000D03*
X94230000Y-98430000D03*
D11*
X127540000Y-97790000D03*
X131540000Y-97790000D03*
X127540000Y-93980000D03*
X131540000Y-93980000D03*
D15*
X142240000Y-97155000D03*
X142240000Y-93345000D03*
X142240000Y-89535000D03*
X142240000Y-85725000D03*
D16*
X101600000Y-96520000D03*
D17*
X119380000Y-88900000D03*
X104140000Y-96520000D03*
X116840000Y-88900000D03*
X106680000Y-96520000D03*
X114300000Y-88900000D03*
X109220000Y-96520000D03*
X111760000Y-88900000D03*
X111760000Y-96520000D03*
X109220000Y-88900000D03*
X114300000Y-96520000D03*
X106680000Y-88900000D03*
X116840000Y-96520000D03*
X104140000Y-88900000D03*
X119380000Y-96520000D03*
X101600000Y-88900000D03*
M02*
